<svg aria-roledescription="er" role="graphics-document document" viewBox="0 0 1225.142578125 815" height="815" xmlns="http://www.w3.org/2000/svg" width="1225.142578125" id="tmpMermaidElement9932"><style>#tmpMermaidElement {background: white;}#tmpMermaidElement9932{font-family:"trebuchet ms",verdana,arial,sans-serif;font-size:16px;fill:#333;}#tmpMermaidElement9932 .error-icon{fill:#552222;}#tmpMermaidElement9932 .error-text{fill:#552222;stroke:#552222;}#tmpMermaidElement9932 .edge-thickness-normal{stroke-width:2px;}#tmpMermaidElement9932 .edge-thickness-thick{stroke-width:3.5px;}#tmpMermaidElement9932 .edge-pattern-solid{stroke-dasharray:0;}#tmpMermaidElement9932 .edge-pattern-dashed{stroke-dasharray:3;}#tmpMermaidElement9932 .edge-pattern-dotted{stroke-dasharray:2;}#tmpMermaidElement9932 .marker{fill:#333333;stroke:#333333;}#tmpMermaidElement9932 .marker.cross{stroke:#333333;}#tmpMermaidElement9932 svg{font-family:"trebuchet ms",verdana,arial,sans-serif;font-size:16px;}#tmpMermaidElement9932 .entityBox{fill:#ECECFF;stroke:#9370DB;}#tmpMermaidElement9932 .attributeBoxOdd{fill:#ffffff;stroke:#9370DB;}#tmpMermaidElement9932 .attributeBoxEven{fill:#f2f2f2;stroke:#9370DB;}#tmpMermaidElement9932 .relationshipLabelBox{fill:hsl(80, 100%, 96.2745098039%);opacity:0.7;background-color:hsl(80, 100%, 96.2745098039%);}#tmpMermaidElement9932 .relationshipLabelBox rect{opacity:0.5;}#tmpMermaidElement9932 .relationshipLine{stroke:#333333;}#tmpMermaidElement9932 .entityTitleText{text-anchor:middle;font-size:18px;fill:#333;}#tmpMermaidElement9932 #MD_PARENT_START{fill:#f5f5f5!important;stroke:#333333!important;stroke-width:1;}#tmpMermaidElement9932 #MD_PARENT_END{fill:#f5f5f5!important;stroke:#333333!important;stroke-width:1;}#tmpMermaidElement9932 :root{--mermaid-font-family:"trebuchet ms",verdana,arial,sans-serif;}</style><g></g><defs><marker orient="auto" markerHeight="240" markerWidth="190" refY="7" refX="0" id="MD_PARENT_START"><path d="M 18,7 L9,13 L1,7 L9,1 Z"></path></marker></defs><defs><marker orient="auto" markerHeight="28" markerWidth="20" refY="7" refX="19" id="MD_PARENT_END"><path d="M 18,7 L9,13 L1,7 L9,1 Z"></path></marker></defs><defs><marker orient="auto" markerHeight="18" markerWidth="18" refY="9" refX="0" id="ONLY_ONE_START"><path d="M9,0 L9,18 M15,0 L15,18" fill="none" stroke="gray"></path></marker></defs><defs><marker orient="auto" markerHeight="18" markerWidth="18" refY="9" refX="18" id="ONLY_ONE_END"><path d="M3,0 L3,18 M9,0 L9,18" fill="none" stroke="gray"></path></marker></defs><defs><marker orient="auto" markerHeight="18" markerWidth="30" refY="9" refX="0" id="ZERO_OR_ONE_START"><circle r="6" cy="9" cx="21" fill="white" stroke="gray"></circle><path d="M9,0 L9,18" fill="none" stroke="gray"></path></marker></defs><defs><marker orient="auto" markerHeight="18" markerWidth="30" refY="9" refX="30" id="ZERO_OR_ONE_END"><circle r="6" cy="9" cx="9" fill="white" stroke="gray"></circle><path d="M21,0 L21,18" fill="none" stroke="gray"></path></marker></defs><defs><marker orient="auto" markerHeight="36" markerWidth="45" refY="18" refX="18" id="ONE_OR_MORE_START"><path d="M0,18 Q 18,0 36,18 Q 18,36 0,18 M42,9 L42,27" fill="none" stroke="gray"></path></marker></defs><defs><marker orient="auto" markerHeight="36" markerWidth="45" refY="18" refX="27" id="ONE_OR_MORE_END"><path d="M3,9 L3,27 M9,18 Q27,0 45,18 Q27,36 9,18" fill="none" stroke="gray"></path></marker></defs><defs><marker orient="auto" markerHeight="36" markerWidth="57" refY="18" refX="18" id="ZERO_OR_MORE_START"><circle r="6" cy="18" cx="48" fill="white" stroke="gray"></circle><path d="M0,18 Q18,0 36,18 Q18,36 0,18" fill="none" stroke="gray"></path></marker></defs><defs><marker orient="auto" markerHeight="36" markerWidth="57" refY="18" refX="39" id="ZERO_OR_MORE_END"><circle r="6" cy="18" cx="9" fill="white" stroke="gray"></circle><path d="M21,18 Q39,0 57,18 Q39,36 21,18" fill="none" stroke="gray"></path></marker></defs><path style="stroke: gray; fill: none;" marker-start="url(#ONLY_ONE_START)" marker-end="url(#ZERO_OR_MORE_END)" d="M333.838,270L324.314,278.333C314.79,286.667,295.742,303.333,286.219,320C276.695,336.667,276.695,353.333,276.695,361.667L276.695,370" class="er relationshipLine"></path><path style="stroke: gray; fill: none;" marker-start="url(#ONLY_ONE_START)" marker-end="url(#ZERO_OR_MORE_END)" d="M399.368,270L404.407,278.333C409.445,286.667,419.523,303.333,433.808,320C448.094,336.667,466.588,353.333,475.835,361.667L485.083,370" class="er relationshipLine"></path><path style="stroke: gray; fill: none;" marker-start="url(#ONLY_ONE_START)" marker-end="url(#ZERO_OR_MORE_END)" d="M426.695,248.243L464.679,260.202C502.663,272.162,578.631,296.081,637.996,318.534C697.361,340.987,740.123,361.974,761.504,372.467L782.885,382.961" class="er relationshipLine"></path><path style="stroke: gray; fill: none;" marker-start="url(#ZERO_OR_MORE_START)" marker-end="url(#ONLY_ONE_END)" d="M276.695,445L276.695,453.333C276.695,461.667,276.695,478.333,344.393,499.652C412.092,520.97,547.488,546.94,615.187,559.925L682.885,572.91" class="er relationshipLine"></path><path style="stroke: gray; fill: none;" marker-start="url(#ZERO_OR_MORE_START)" marker-end="url(#ONLY_ONE_END)" d="M1167.199,720L1171.961,711.667C1176.723,703.333,1186.247,686.667,1122.194,665.325C1058.142,643.984,920.514,617.968,851.699,604.96L782.885,591.952" class="er relationshipLine"></path><path style="stroke: gray; fill: none;" marker-start="url(#ZERO_OR_MORE_START)" marker-end="url(#ONLY_ONE_END)" d="M526.695,445L526.695,453.333C526.695,461.667,526.695,478.333,552.727,497.714C578.758,517.094,630.822,539.188,656.854,550.235L682.885,561.282" class="er relationshipLine"></path><path style="stroke: gray; fill: none;" marker-start="url(#ZERO_OR_MORE_START)" marker-end="url(#ONLY_ONE_END)" d="M832.885,445L832.885,453.333C832.885,461.667,832.885,478.333,823.361,495C813.838,511.667,794.79,528.333,785.266,536.667L775.742,545" class="er relationshipLine"></path><path style="stroke: gray; fill: none;" marker-start="url(#ONLY_ONE_START)" marker-end="url(#ZERO_OR_MORE_END)" d="M476.695,86.667L460.028,96.389C443.361,106.111,410.028,125.556,393.361,143.611C376.695,161.667,376.695,178.333,376.695,186.667L376.695,195" class="er relationshipLine"></path><path style="stroke: gray; fill: none;" marker-start="url(#ONLY_ONE_START)" marker-end="url(#ZERO_OR_MORE_END)" d="M538.654,95L541.312,103.333C543.969,111.667,549.284,128.333,551.942,151.25C554.6,174.167,554.6,203.333,554.6,232.5C554.6,261.667,554.6,290.833,551.942,313.75C549.284,336.667,543.969,353.333,541.312,361.667L538.654,370" class="er relationshipLine"></path><path style="stroke: gray; fill: none;" marker-start="url(#ONLY_ONE_START)" marker-end="url(#ZERO_OR_MORE_END)" d="M682.885,589.1L580.738,602.583C478.59,616.067,274.295,643.033,172.148,664.85C70,686.667,70,703.333,70,711.667L70,720" class="er relationshipLine"></path><path style="stroke: gray; fill: none;" marker-start="url(#ONLY_ONE_START)" marker-end="url(#ZERO_OR_MORE_END)" d="M682.885,591.952L614.071,604.96C545.257,617.968,407.628,643.984,338.814,665.325C270,686.667,270,703.333,270,711.667L270,720" class="er relationshipLine"></path><path style="stroke: gray; fill: none;" marker-start="url(#ONLY_ONE_START)" marker-end="url(#ZERO_OR_MORE_END)" d="M682.885,599.142L647.404,610.952C611.924,622.761,540.962,646.381,505.481,666.524C470,686.667,470,703.333,470,711.667L470,720" class="er relationshipLine"></path><path style="stroke: gray; fill: none;" marker-start="url(#ONLY_ONE_START)" marker-end="url(#ZERO_OR_MORE_END)" d="M688.177,620L678.241,628.333C668.306,636.667,648.435,653.333,644.078,670C639.72,686.667,650.875,703.333,656.453,711.667L662.031,720" class="er relationshipLine"></path><path style="stroke: gray; fill: none;" marker-start="url(#ONLY_ONE_START)" marker-end="url(#ZERO_OR_MORE_END)" d="M782.885,618.704L794.693,627.253C806.5,635.802,830.115,652.901,848.265,669.784C866.415,686.667,879.101,703.333,885.444,711.667L891.786,720" class="er relationshipLine"></path><path style="stroke: gray; fill: none;" marker-start="url(#ONLY_ONE_START)" marker-end="url(#ZERO_OR_MORE_END)" d="M782.885,594.994L832.913,607.495C882.94,619.996,982.995,644.998,1038.996,665.832C1094.997,686.667,1106.943,703.333,1112.917,711.667L1118.89,720" class="er relationshipLine"></path><path style="stroke: gray; fill: none;" marker-start="url(#ZERO_OR_MORE_START)" marker-end="url(#ONLY_ONE_END)" d="M754.6,270L754.6,278.333C754.6,286.667,754.6,303.333,762.055,320C769.511,336.667,784.423,353.333,791.878,361.667L799.334,370" class="er relationshipLine"></path><path style="stroke: gray; fill: none;" marker-start="url(#ZERO_OR_MORE_START)" marker-end="url(#ONLY_ONE_END)" d="M966.98,270L966.98,278.333C966.98,286.667,966.98,303.333,952.965,320.812C938.949,338.291,910.917,356.583,896.901,365.728L882.885,374.874" class="er relationshipLine"></path><path style="stroke: gray; fill: none;" marker-start="url(#ZERO_OR_MORE_START)" marker-end="url(#ONLY_ONE_END)" d="M708.558,720L713.32,711.667C718.082,703.333,727.606,686.667,731.964,670C736.321,653.333,735.513,636.667,735.109,628.333L734.704,620" class="er relationshipLine"></path><path style="stroke: gray; fill: none;" marker-start="url(#ZERO_OR_MORE_START)" marker-end="url(#ONLY_ONE_END)" d="M947.209,720L953.183,711.667C959.156,703.333,971.103,686.667,943.716,666.665C916.328,646.663,849.607,623.326,816.246,611.657L782.885,599.988" class="er relationshipLine"></path><g transform="translate(326.69482421875,195 )" id="entity-Tld-56da072a-8ff1-5892-9794-911fa5b35c84"><rect height="75" width="100" y="0" x="0" class="er entityBox"></rect><text style="dominant-baseline: middle; text-anchor: middle; font-size: 12px;" transform="translate(50,37.5)" y="0" x="0" id="text-entity-Tld-56da072a-8ff1-5892-9794-911fa5b35c84" class="er entityLabel">Tld</text></g><g transform="translate(220.88525390625,370 )" id="entity-RoyaltyHistory-f9385cdf-2f65-589e-9afc-863d76f33505"><rect height="75" width="111.619140625" y="0" x="0" class="er entityBox"></rect><text style="dominant-baseline: middle; text-anchor: middle; font-size: 12px;" transform="translate(55.8095703125,37.5)" y="0" x="0" id="text-entity-RoyaltyHistory-f9385cdf-2f65-589e-9afc-863d76f33505" class="er entityLabel">RoyaltyHistory</text></g><g transform="translate(476.69482421875,370 )" id="entity-Sld-890c7fb2-479e-55c2-af2a-021ec750382a"><rect height="75" width="100" y="0" x="0" class="er entityBox"></rect><text style="dominant-baseline: middle; text-anchor: middle; font-size: 12px;" transform="translate(50,37.5)" y="0" x="0" id="text-entity-Sld-890c7fb2-479e-55c2-af2a-021ec750382a" class="er entityLabel">Sld</text></g><g transform="translate(782.88525390625,370 )" id="entity-SaleSettings-46cfb768-037b-5443-8414-07c0219eebfd"><rect height="75" width="100" y="0" x="0" class="er entityBox"></rect><text style="dominant-baseline: middle; text-anchor: middle; font-size: 12px;" transform="translate(50,37.5)" y="0" x="0" id="text-entity-SaleSettings-46cfb768-037b-5443-8414-07c0219eebfd" class="er entityLabel">SaleSettings</text></g><g transform="translate(682.88525390625,545 )" id="entity-Resolver-ebadf0b4-797a-5d2e-a113-a0fafc3f4874"><rect height="75" width="100" y="0" x="0" class="er entityBox"></rect><text style="dominant-baseline: middle; text-anchor: middle; font-size: 12px;" transform="translate(50,37.5)" y="0" x="0" id="text-entity-Resolver-ebadf0b4-797a-5d2e-a113-a0fafc3f4874" class="er entityLabel">Resolver</text></g><g transform="translate(1086.3984375,720 )" id="entity-ResolverHistory-1beafc10-b4e5-5e21-bca5-ef52c87804e9"><rect height="75" width="118.744140625" y="0" x="0" class="er entityBox"></rect><text style="dominant-baseline: middle; text-anchor: middle; font-size: 12px;" transform="translate(59.3720703125,37.5)" y="0" x="0" id="text-entity-ResolverHistory-1beafc10-b4e5-5e21-bca5-ef52c87804e9" class="er entityLabel">ResolverHistory</text></g><g transform="translate(476.69482421875,20 )" id="entity-Account-3e57c4b6-cd9d-514f-a2f6-ac5478bb332e"><rect height="75" width="100" y="0" x="0" class="er entityBox"></rect><text style="dominant-baseline: middle; text-anchor: middle; font-size: 12px;" transform="translate(50,37.5)" y="0" x="0" id="text-entity-Account-3e57c4b6-cd9d-514f-a2f6-ac5478bb332e" class="er entityLabel">Account</text></g><g transform="translate(20,720 )" id="entity-Address-c76279a2-ae7d-51c9-9b7a-8d5514196196"><rect height="75" width="100" y="0" x="0" class="er entityBox"></rect><text style="dominant-baseline: middle; text-anchor: middle; font-size: 12px;" transform="translate(50,37.5)" y="0" x="0" id="text-entity-Address-c76279a2-ae7d-51c9-9b7a-8d5514196196" class="er entityLabel">Address</text></g><g transform="translate(220,720 )" id="entity-TextRecord-2357e3f2-15d4-5a6c-9923-412101100d95"><rect height="75" width="100" y="0" x="0" class="er entityBox"></rect><text style="dominant-baseline: middle; text-anchor: middle; font-size: 12px;" transform="translate(50,37.5)" y="0" x="0" id="text-entity-TextRecord-2357e3f2-15d4-5a6c-9923-412101100d95" class="er entityLabel">TextRecord</text></g><g transform="translate(420,720 )" id="entity-DnsRecord-20f90009-a22e-5a34-b5b8-091b59a33c1d"><rect height="75" width="100" y="0" x="0" class="er entityBox"></rect><text style="dominant-baseline: middle; text-anchor: middle; font-size: 12px;" transform="translate(50,37.5)" y="0" x="0" id="text-entity-DnsRecord-20f90009-a22e-5a34-b5b8-091b59a33c1d" class="er entityLabel">DnsRecord</text></g><g transform="translate(620,720 )" id="entity-TextRecordHistory-cba666f5-7854-5473-9829-8f84d71d4bae"><rect height="75" width="134.259765625" y="0" x="0" class="er entityBox"></rect><text style="dominant-baseline: middle; text-anchor: middle; font-size: 12px;" transform="translate(67.1298828125,37.5)" y="0" x="0" id="text-entity-TextRecordHistory-cba666f5-7854-5473-9829-8f84d71d4bae" class="er entityLabel">TextRecordHistory</text></g><g transform="translate(854.259765625,720 )" id="entity-DnsRecordHistory-9418f544-9243-5562-b9a1-c44b537ba57d"><rect height="75" width="132.138671875" y="0" x="0" class="er entityBox"></rect><text style="dominant-baseline: middle; text-anchor: middle; font-size: 12px;" transform="translate(66.0693359375,37.5)" y="0" x="0" id="text-entity-DnsRecordHistory-9418f544-9243-5562-b9a1-c44b537ba57d" class="er entityLabel">DnsRecordHistory</text></g><g transform="translate(699.9150390625,195 )" id="entity-PremiumPrice-83142019-f9ab-5eaf-ae37-30e81c6e3fbb"><rect height="75" width="109.369140625" y="0" x="0" class="er entityBox"></rect><text style="dominant-baseline: middle; text-anchor: middle; font-size: 12px;" transform="translate(54.6845703125,37.5)" y="0" x="0" id="text-entity-PremiumPrice-83142019-f9ab-5eaf-ae37-30e81c6e3fbb" class="er entityLabel">PremiumPrice</text></g><g transform="translate(909.2841796875,195 )" id="entity-ReservedName-806a4349-dfc0-5f4a-9baa-9368eb74ee81"><rect height="75" width="115.392578125" y="0" x="0" class="er entityBox"></rect><text style="dominant-baseline: middle; text-anchor: middle; font-size: 12px;" transform="translate(57.6962890625,37.5)" y="0" x="0" id="text-entity-ReservedName-806a4349-dfc0-5f4a-9baa-9368eb74ee81" class="er entityLabel">ReservedName</text></g><rect height="17.015625" width="20.02734375" y="304.0566101074219" x="281.0430908203125" class="er relationshipLabelBox"></rect><text style="text-anchor: middle; dominant-baseline: middle; font-size: 12px;" y="312.5644226074219" x="291.0567626953125" id="rel57" class="er relationshipLabel">has</text><rect height="17.015625" width="20.02734375" y="315.5798034667969" x="427.379638671875" class="er relationshipLabelBox"></rect><text style="text-anchor: middle; dominant-baseline: middle; font-size: 12px;" y="324.0876159667969" x="437.393310546875" id="rel58" class="er relationshipLabel">has</text><rect height="17.015625" width="20.02734375" y="299.0019226074219" x="597.9031982421875" class="er relationshipLabelBox"></rect><text style="text-anchor: middle; dominant-baseline: middle; font-size: 12px;" y="307.5097351074219" x="607.9168701171875" id="rel59" class="er relationshipLabel">has</text><rect height="17.015625" width="60.6875" y="521.5092163085938" x="435.9278869628906" class="er relationshipLabelBox"></rect><text style="text-anchor: middle; dominant-baseline: middle; font-size: 12px;" y="530.0170288085938" x="466.2716369628906" id="rel60" class="er relationshipLabel">belongs_to</text><rect height="17.015625" width="60.6875" y="625.1541137695312" x="966.1103515625" class="er relationshipLabelBox"></rect><text style="text-anchor: middle; dominant-baseline: middle; font-size: 12px;" y="633.6619262695312" x="996.4541015625" id="rel61" class="er relationshipLabel">belongs_to</text><rect height="17.015625" width="60.6875" y="510.4649658203125" x="558.0247802734375" class="er relationshipLabelBox"></rect><text style="text-anchor: middle; dominant-baseline: middle; font-size: 12px;" y="518.9727783203125" x="588.3685302734375" id="rel62" class="er relationshipLabel">belongs_to</text><rect height="17.015625" width="60.6875" y="493.9277648925781" x="788.1795043945312" class="er relationshipLabelBox"></rect><text style="text-anchor: middle; dominant-baseline: middle; font-size: 12px;" y="502.4355773925781" x="818.5232543945312" id="rel63" class="er relationshipLabel">belongs_to</text><rect height="17.015625" width="29.876953125" y="120.01551818847656" x="395.4013671875" class="er relationshipLabelBox"></rect><text style="text-anchor: middle; dominant-baseline: middle; font-size: 12px;" y="128.52333068847656" x="410.33984375" id="rel64" class="er relationshipLabel">owns</text><rect height="17.015625" width="29.876953125" y="223.9921875" x="539.6614990234375" class="er relationshipLabelBox"></rect><text style="text-anchor: middle; dominant-baseline: middle; font-size: 12px;" y="232.5" x="554.5999755859375" id="rel65" class="er relationshipLabel">owns</text><rect height="17.015625" width="20.02734375" y="623.8228149414062" x="354.5489807128906" class="er relationshipLabelBox"></rect><text style="text-anchor: middle; dominant-baseline: middle; font-size: 12px;" y="632.3306274414062" x="364.5626525878906" id="rel66" class="er relationshipLabel">has</text><rect height="17.015625" width="20.02734375" y="626.3494262695312" x="452.9759216308594" class="er relationshipLabelBox"></rect><text style="text-anchor: middle; dominant-baseline: middle; font-size: 12px;" y="634.8572387695312" x="462.9895935058594" id="rel67" class="er relationshipLabel">has</text><rect height="17.015625" width="20.02734375" y="633.1192016601562" x="550.6254272460938" class="er relationshipLabelBox"></rect><text style="text-anchor: middle; dominant-baseline: middle; font-size: 12px;" y="641.6270141601562" x="560.6390991210938" id="rel68" class="er relationshipLabel">has</text><rect height="17.015625" width="20.02734375" y="655.515380859375" x="636.2554931640625" class="er relationshipLabelBox"></rect><text style="text-anchor: middle; dominant-baseline: middle; font-size: 12px;" y="664.023193359375" x="646.2691650390625" id="rel69" class="er relationshipLabel">has</text><rect height="17.015625" width="20.02734375" y="655.7555541992188" x="832.1397705078125" class="er relationshipLabelBox"></rect><text style="text-anchor: middle; dominant-baseline: middle; font-size: 12px;" y="664.2633666992188" x="842.1534423828125" id="rel70" class="er relationshipLabel">has</text><rect height="17.015625" width="20.02734375" y="632.1167602539062" x="949.2265014648438" class="er relationshipLabelBox"></rect><text style="text-anchor: middle; dominant-baseline: middle; font-size: 12px;" y="640.6245727539062" x="959.2401733398438" id="rel71" class="er relationshipLabel">has</text><rect height="17.015625" width="60.6875" y="316.7049865722656" x="734.2747802734375" class="er relationshipLabelBox"></rect><text style="text-anchor: middle; dominant-baseline: middle; font-size: 12px;" y="325.2127990722656" x="764.6185302734375" id="rel72" class="er relationshipLabel">belongs_to</text><rect height="17.015625" width="60.6875" y="324.8215026855469" x="910.5726318359375" class="er relationshipLabelBox"></rect><text style="text-anchor: middle; dominant-baseline: middle; font-size: 12px;" y="333.3293151855469" x="940.9163818359375" id="rel73" class="er relationshipLabel">belongs_to</text><rect height="17.015625" width="60.6875" y="663.9403076171875" x="700.9434814453125" class="er relationshipLabelBox"></rect><text style="text-anchor: middle; dominant-baseline: middle; font-size: 12px;" y="672.4481201171875" x="731.2872314453125" id="rel74" class="er relationshipLabel">belongs_to</text><rect height="17.015625" width="60.6875" y="632.6341552734375" x="864.2157592773438" class="er relationshipLabelBox"></rect><text style="text-anchor: middle; dominant-baseline: middle; font-size: 12px;" y="641.1419677734375" x="894.5595092773438" id="rel75" class="er relationshipLabel">belongs_to</text></svg>